<?xml version="1.0" encoding="UTF-8" standalone="no"?>
<!-- Created with Inkscape (http://www.inkscape.org/) -->

<svg
   version="1.1"
   id="svg1"
   width="511.7171"
   height="490.40234"
   viewBox="0 0 511.7171 490.40234"
   sodipodi:docname="github_redondo.png"
   xmlns:inkscape="http://www.inkscape.org/namespaces/inkscape"
   xmlns:sodipodi="http://sodipodi.sourceforge.net/DTD/sodipodi-0.dtd"
   xmlns="http://www.w3.org/2000/svg"
   xmlns:svg="http://www.w3.org/2000/svg">
  <defs
     id="defs1" />
  <sodipodi:namedview
     id="namedview1"
     pagecolor="#505050"
     bordercolor="#eeeeee"
     borderopacity="1"
     inkscape:showpageshadow="0"
     inkscape:pageopacity="0"
     inkscape:pagecheckerboard="0"
     inkscape:deskcolor="#505050">
    <inkscape:page
       x="0"
       y="0"
       width="511.7171"
       height="490.40234"
       id="page2"
       margin="0"
       bleed="0" />
  </sodipodi:namedview>
  <g
     inkscape:groupmode="layer"
     inkscape:label="Image"
     id="g1"
     transform="translate(-0.14143796,-10.79882)">
    <path
       style="fill:#ffffff;fill-opacity:1"
       d="m 175.50087,500.88954 c -2.2,-0.40083 -8.95,-2.72745 -15,-5.17025 -6.05,-2.4428 -15.67312,-6.78782 -21.38471,-9.6556 -5.71159,-2.86777 -14.48659,-7.75084 -19.5,-10.85125 -5.01341,-3.10042 -14.4539,-9.65522 -20.97887,-14.56622 -6.52497,-4.91101 -16.91755,-13.92729 -23.09462,-20.03617 -6.17708,-6.10888 -14.45206,-14.98832 -18.38885,-19.73207 -3.93679,-4.74376 -10.92727,-14.26955 -15.5344,-21.16843 -4.60714,-6.89888 -11.08055,-17.86763 -14.38536,-24.37499 -3.30482,-6.50736 -8.03578,-17.00657 -10.51325,-23.33157 -2.47746,-6.325 -5.88075,-16.45 -7.5628702,-22.5 -1.68211,-6.05 -3.9455,-15.725 -5.02976,-21.5 -1.08425,-5.775 -2.51665,-15.8736 -3.18311001,-22.44132 -0.762,-7.50929 -0.99895,-19.01499 -0.63843,-31 0.31531,-10.48228 1.28806001,-23.55868 2.16166001,-29.05868 0.8736,-5.5 2.76205,-14.95 4.19655,-21 1.43451,-6.05 4.3224802,-15.9867 6.4177202,-22.08156 2.09524,-6.09487 5.66708,-15.31987 7.93742,-20.49999 2.27035,-5.18014 6.12075,-13.08942 8.55646,-17.57617 2.43571,-4.48675 7.49747,-12.81175 11.24836,-18.5 3.75089,-5.68825 10.44171,-14.84285 14.86849,-20.34356 4.42679,-5.50072 13.86273,-15.62572 20.96877,-22.500009 7.10604,-6.874288 17.17678,-15.700264 22.37943,-19.61328 5.20266,-3.913016 12.60937,-9.145065 16.45937,-11.626775 3.85,-2.481711 11.5,-6.996005 17,-10.031764 5.5,-3.035759 14.725,-7.531125 20.5,-9.989703 5.775,-2.458577 15.45,-6.09991 21.5,-8.091851 6.05,-1.991941 15.725,-4.740092 21.5,-6.107002 5.775,-1.366911 14.8866,-3.184217 20.248,-4.03846 5.36141,-0.854242 16.49879,-1.921607 24.74975,-2.371921 8.25096,-0.450314 21.91299,-0.441595 30.36008,0.01938 8.44708,0.460971 20.7097,1.750165 27.25025,2.864876 6.54056,1.114711 17.78701,3.574657 24.99211,5.466546 7.20511,1.891889 18.43936,5.503336 24.96499,8.025438 6.52564,2.522101 17.23457,7.29089 23.79763,10.597308 6.56305,3.306418 16.12219,8.644734 21.24252,11.862924 5.12033,3.218191 13.69802,9.15523 19.06154,13.19342 5.36352,4.038189 15.56589,12.966581 22.67193,19.840869 7.10603,6.874289 16.45279,16.890612 20.77055,22.258494 4.31777,5.36789 10.47764,13.69347 13.68861,18.5013 3.21096,4.80782 8.12961,12.7915 10.93032,17.7415 2.80071,4.95 7.15463,13.60873 9.67537,19.24161 2.52075,5.63289 6.3249,15.30789 8.45367,21.5 2.12878,6.19212 5.04419,16.20839 6.47869,22.25839 1.43451,6.05 3.32296,15.5 4.19656,21 0.8736,5.5 1.84635,18.5764 2.16166,29.05868 0.35656,11.85352 0.12126,23.5731 -0.62241,31 -0.65764,6.56772 -2.30929,17.56632 -3.67033,24.44132 -1.36105,6.875 -3.61455,16.325 -5.0078,21 -1.39324,4.675 -4.16148,13 -6.15164,18.5 -1.99017,5.5 -6.80299,16.3 -10.69516,24 -3.89218,7.7 -10.16934,18.67434 -13.94925,24.38743 -3.7799,5.71309 -10.35469,14.71309 -14.61064,20 -4.25594,5.28691 -12.38731,14.26828 -18.06971,19.9586 -5.6824,5.69031 -14.85091,13.98414 -20.37446,18.43074 -5.52356,4.44659 -14.31783,10.88394 -19.54283,14.30522 -5.225,3.42128 -13.55,8.40873 -18.5,11.08323 -4.95,2.6745 -12.825,6.60373 -17.5,8.73163 -4.675,2.12789 -12.68483,5.3841 -17.79961,7.23602 -5.11479,1.85192 -11.18979,3.3605 -13.5,3.35239 -2.31022,-0.008 -5.28201,-0.57061 -6.60399,-1.25 -1.32198,-0.67939 -3.23709,-2.36026 -4.25579,-3.73526 -1.72567,-2.32923 -1.87253,-5.50553 -2.14994,-46.5 -0.28702,-42.41411 -0.37951,-44.27021 -2.5661,-51.49675 -1.24759,-4.12321 -3.43633,-9.64272 -4.86387,-12.26558 -1.42753,-2.62286 -4.13025,-6.56182 -6.00603,-8.75325 -1.87579,-2.19143 -3.03795,-3.98623 -2.58259,-3.98844 0.45535,-0.002 5.10292,-0.68221 10.32792,-1.5111 5.225,-0.8289 12.5154,-2.17744 16.20088,-2.99677 3.68548,-0.81933 10.32868,-2.63571 14.76267,-4.03641 4.43399,-1.4007 11.08572,-3.90346 14.78163,-5.5617 3.6959,-1.65824 10.35124,-5.43125 14.78963,-8.38445 4.43839,-2.9532 11.49792,-8.95763 15.68785,-13.34318 4.18992,-4.38554 9.68717,-11.50366 12.21612,-15.81804 2.52894,-4.31438 5.9415,-11.32176 7.58346,-15.57196 1.64196,-4.25019 3.84502,-11.45019 4.89569,-16 1.05067,-4.5498 2.45759,-12.68426 3.12648,-18.07658 0.74288,-5.9887 1.01437,-15.91255 0.69762,-25.5 -0.43209,-13.07848 -0.963,-17.19656 -3.18383,-24.69579 -1.4659,-4.95 -4.32067,-12.375 -6.34393,-16.5 -2.02327,-4.125 -6.45476,-11.18864 -9.84776,-15.69699 -6.16911,-8.19698 -6.16911,-8.19698 -4.80449,-12.15781 0.75053,-2.17845 1.82772,-6.8148 2.39374,-10.30301 0.56602,-3.4882 1.01683,-9.94219 1.0018,-14.34219 -0.015,-4.4 -0.64177,-11.44515 -1.39275,-15.65589 -0.75098,-4.21074 -2.37294,-10.84824 -3.60435,-14.75 -2.23894,-7.09411 -2.23894,-7.09411 -8.70535,-7.09411 -3.55653,0 -9.23138,0.70114 -12.61077,1.55809 -3.37938,0.85694 -8.60019,2.46055 -11.60178,3.56357 -3.00158,1.10302 -9.45302,3.99089 -14.33652,6.41749 -4.8835,2.4266 -12.55266,6.65183 -17.04257,9.3894 -8.16347,4.97741 -8.16347,4.97741 -16.16347,3.10916 -4.4,-1.02754 -12.95,-2.69388 -19,-3.70298 -8.79236,-1.46651 -16.31841,-1.8268 -37.5,-1.7952 -20.5608,0.0307 -28.74121,0.43006 -36.5,1.78206 -5.5,0.9584 -13.72697,2.62311 -18.28215,3.69936 -8.28216,1.95682 -8.28216,1.95682 -19.2525,-4.63067 -6.03369,-3.62313 -15.42103,-8.54624 -20.86075,-10.94025 -5.43973,-2.39402 -13.50108,-5.27465 -17.91412,-6.4014 -4.41304,-1.12674 -10.92357,-2.04863 -14.46785,-2.04863 -6.44415,0 -6.44415,0 -8.68953,7.11452 -1.23496,3.91298 -2.9236,11.00048 -3.75253,15.75 -1.02373,5.86565 -1.3339,12.00335 -0.96702,19.13548 0.29706,5.775 1.2159,12.97499 2.04186,15.99999 0.82596,3.025 1.77058,6.19253 2.09916,7.03895 0.37556,0.9674 -1.48027,4.12416 -4.99704,8.5 -3.07696,3.82858 -7.80145,11.46105 -10.49886,16.96105 -2.69742,5.5 -5.92513,14.05 -7.1727,19 -1.97111,7.82078 -2.26383,11.48947 -2.23405,28 0.0279,15.45723 0.44435,21.06089 2.2336,30.0526 1.20964,6.07894 3.27861,14.17894 4.59772,18 1.3191,3.82107 3.37769,9.19263 4.57465,11.9368 1.19695,2.74417 4.60042,8.63266 7.56326,13.08554 2.96285,4.45288 8.50416,11.03673 12.31402,14.63076 3.80987,3.59404 9.05118,7.99606 11.64735,9.78227 2.59617,1.78622 8.61218,5.17142 13.3689,7.52267 4.75672,2.35125 12.92358,5.63537 18.14858,7.29805 5.225,1.66268 14.225,3.91886 20,5.01374 5.775,1.09487 12.88012,2.30238 15.78916,2.68335 5.28915,0.69267 5.28915,0.69267 1.89111,4.84344 -1.86892,2.28293 -4.61598,6.55643 -6.10459,9.49667 -1.4886,2.94023 -3.57814,8.75377 -4.64342,12.91897 -1.06528,4.16519 -2.04833,7.6577 -2.18456,7.76111 -0.13624,0.10342 -3.09416,1.13434 -6.57316,2.29094 -3.479,1.1566 -9.90064,2.65021 -14.27032,3.31913 -6.20489,0.94986 -9.6377,0.95332 -15.67454,0.0158 -4.25132,-0.66022 -10.5591,-2.52376 -14.01728,-4.14119 -3.56218,-1.66606 -8.84883,-5.38376 -12.19637,-8.57678 -3.24982,-3.09981 -8.45165,-9.41853 -11.55962,-14.04161 -3.10797,-4.62309 -8.10673,-10.59449 -11.10835,-13.26979 -3.00162,-2.6753 -7.66919,-6.06794 -10.37238,-7.5392 -2.70319,-1.47126 -7.91901,-3.30356 -11.5907,-4.07178 -4.47299,-0.93587 -8.14146,-1.12295 -11.11758,-0.56695 -2.44297,0.4564 -4.90959,1.29763 -5.48137,1.86942 -0.57178,0.57178 -0.76327,2.1406 -0.42553,3.48626 0.33774,1.34567 2.68284,3.96612 5.21132,5.82322 2.52848,1.8571 6.9217,5.20259 9.76271,7.43443 2.84101,2.23183 7.30881,6.71676 9.92846,9.96652 2.61964,3.24975 6.81785,10.19871 9.32935,15.44212 2.51149,5.24341 5.54314,11.54339 6.737,13.99994 1.19386,2.45656 5.32066,7.63388 9.17066,11.50517 4.02549,4.04776 9.62863,8.42797 13.18605,10.3081 3.40232,1.79816 9.70232,4.21751 14,5.37634 6.00902,1.62027 10.8168,2.11498 20.81395,2.1417 7.15,0.0191 15.66369,-0.48887 18.91932,-1.12886 3.25562,-0.63998 6.17441,-0.90851 6.4862,-0.59672 0.31179,0.31179 0.5731,10.99809 0.58068,23.74735 0.0123,20.73468 -0.17717,23.46175 -1.79619,25.84649 -0.9955,1.46632 -2.5705,2.98068 -3.5,3.36525 -0.92951,0.38458 -3.04001,1.01081 -4.69001,1.39165 -1.65,0.38083 -4.8,0.36446 -7,-0.0364 z"
       id="path1" />
  </g>
</svg>
