<?xml version="1.0" encoding="UTF-8" standalone="no"?>
<!-- Created with Inkscape (http://www.inkscape.org/) -->

<svg
   version="1.1"
   id="svg1"
   width="512.23926"
   height="384.0571"
   viewBox="0 0 512.23926 384.0571"
   sodipodi:docname="gmail.png"
   xmlns:inkscape="http://www.inkscape.org/namespaces/inkscape"
   xmlns:sodipodi="http://sodipodi.sourceforge.net/DTD/sodipodi-0.dtd"
   xmlns="http://www.w3.org/2000/svg"
   xmlns:svg="http://www.w3.org/2000/svg">
  <defs
     id="defs1" />
  <sodipodi:namedview
     id="namedview1"
     pagecolor="#505050"
     bordercolor="#eeeeee"
     borderopacity="1"
     inkscape:showpageshadow="0"
     inkscape:pageopacity="0"
     inkscape:pagecheckerboard="0"
     inkscape:deskcolor="#505050"
     showgrid="false">
    <inkscape:page
       x="0"
       y="0"
       width="512.23926"
       height="384.0571"
       id="page2"
       margin="0"
       bleed="0" />
  </sodipodi:namedview>
  <g
     inkscape:groupmode="layer"
     inkscape:label="Image"
     id="g1"
     transform="translate(0.11961,-64.038597)">
    <g
       id="g2"
       transform="translate(658.64059,53.293679)">
      <path
         style="fill:#fdba00"
         d="m -262.51841,120.96302 0.0392,-75.756698 18.1249,-13.484126 c 19.42736,-14.453098 23.95661,-17.107361 33.25678,-19.489353 27.37236,-7.0107025 57.20735,11.534245 63.07062,39.203672 1.03035,4.86231 1.43945,14.023375 1.45192,32.513106 l 0.0174,25.743299 -58,43.5134 -58,43.5134 z"
         id="path8" />
      <path
         style="fill:#fa6459"
         d="m -403.92518,300.92061 c -0.26708,-0.43215 0.34832,-0.78572 1.36756,-0.78572 1.01924,0 1.63465,0.35357 1.36757,0.78572 -0.26708,0.43214 -0.88249,0.78571 -1.36757,0.78571 -0.48508,0 -1.10048,-0.35357 -1.36756,-0.78571 z m -0.12536,-151.20283 c -0.35034,-0.56686 0.0511,-0.73451 0.94099,-0.39302 1.73241,0.6648 2.04938,1.38156 0.61095,1.38156 -0.51754,0 -1.21591,-0.44484 -1.55194,-0.98854 z m -3.63463,-2.76146 c -1.24387,-1.58605 -1.2085,-1.62142 0.37755,-0.37755 0.9625,0.75484 1.75,1.54234 1.75,1.75 0,0.82303 -0.82118,0.2933 -2.12755,-1.37245 z m -4,-3 c -1.24387,-1.58605 -1.2085,-1.62142 0.37755,-0.37755 0.9625,0.75484 1.75,1.54234 1.75,1.75 0,0.82303 -0.82118,0.2933 -2.12755,-1.37245 z m -4,-3 c -1.24387,-1.58605 -1.2085,-1.62142 0.37755,-0.37755 0.9625,0.75484 1.75,1.54234 1.75,1.75 0,0.82303 -0.82118,0.2933 -2.12755,-1.37245 z m -4,-3 c -1.24387,-1.58605 -1.2085,-1.62142 0.37755,-0.37755 0.9625,0.75484 1.75,1.54234 1.75,1.75 0,0.82303 -0.82118,0.2933 -2.12755,-1.37245 z m -4,-3 c -1.24387,-1.58605 -1.2085,-1.62142 0.37755,-0.37755 0.9625,0.75484 1.75,1.54234 1.75,1.75 0,0.82303 -0.82118,0.2933 -2.12755,-1.37245 z m -4,-3 c -1.24387,-1.58605 -1.2085,-1.62142 0.37755,-0.37755 0.9625,0.75484 1.75,1.54234 1.75,1.75 0,0.82303 -0.82118,0.2933 -2.12755,-1.37245 z m -4,-3 c -1.24387,-1.58605 -1.2085,-1.62142 0.37755,-0.37755 0.9625,0.75484 1.75,1.54234 1.75,1.75 0,0.82303 -0.82118,0.2933 -2.12755,-1.37245 z m -4,-3 c -1.24387,-1.58605 -1.2085,-1.62142 0.37755,-0.37755 0.9625,0.75484 1.75,1.54234 1.75,1.75 0,0.82303 -0.82118,0.2933 -2.12755,-1.37245 z m -4,-3 c -1.24387,-1.58605 -1.2085,-1.62142 0.37755,-0.37755 1.66575,1.30637 2.19548,2.12755 1.37245,2.12755 -0.20766,0 -0.99516,-0.7875 -1.75,-1.75 z m -4,-3 c -1.24387,-1.58605 -1.2085,-1.62142 0.37755,-0.37755 0.9625,0.75484 1.75,1.54234 1.75,1.75 0,0.82303 -0.82118,0.2933 -2.12755,-1.37245 z m -4,-3 c -1.24387,-1.58605 -1.2085,-1.62142 0.37755,-0.37755 1.66575,1.30637 2.19548,2.12755 1.37245,2.12755 -0.20766,0 -0.99516,-0.7875 -1.75,-1.75 z m -4,-3 c -1.24387,-1.58605 -1.2085,-1.62142 0.37755,-0.37755 1.66575,1.30637 2.19548,2.12755 1.37245,2.12755 -0.20766,0 -0.99516,-0.7875 -1.75,-1.75 z m -4,-3 c -1.24387,-1.58605 -1.2085,-1.62142 0.37755,-0.37755 1.66575,1.30637 2.19548,2.12755 1.37245,2.12755 -0.20766,0 -0.99516,-0.7875 -1.75,-1.75 z m -4,-3 c -1.24387,-1.58605 -1.2085,-1.62142 0.37755,-0.37755 1.66575,1.30637 2.19548,2.12755 1.37245,2.12755 -0.20766,0 -0.99516,-0.7875 -1.75,-1.75 z m -4,-3 c -1.24387,-1.58605 -1.2085,-1.62142 0.37755,-0.37755 0.9625,0.75484 1.75,1.54234 1.75,1.75 0,0.82303 -0.82118,0.2933 -2.12755,-1.37245 z m -4,-3 c -1.24387,-1.58605 -1.2085,-1.62142 0.37755,-0.37755 0.9625,0.75484 1.75,1.54234 1.75,1.75 0,0.82303 -0.82118,0.2933 -2.12755,-1.37245 z m -4,-2.999998 c -1.24387,-1.586056 -1.2085,-1.621426 0.37755,-0.377556 0.9625,0.754845 1.75,1.542344 1.75,1.750004 0,0.82303 -0.82118,0.2933 -2.12755,-1.372448 z m -4,-3 c -1.24387,-1.586056 -1.2085,-1.621426 0.37755,-0.377556 0.9625,0.754845 1.75,1.542345 1.75,1.75 0,0.823035 -0.82118,0.293304 -2.12755,-1.372444 z m -4,-3 c -1.24387,-1.586056 -1.2085,-1.621426 0.37755,-0.377556 0.9625,0.754845 1.75,1.542345 1.75,1.75 0,0.823035 -0.82118,0.293304 -2.12755,-1.372444 z m -4,-3 c -1.24387,-1.586056 -1.2085,-1.621426 0.37755,-0.377556 0.9625,0.754845 1.75,1.542345 1.75,1.75 0,0.823035 -0.82118,0.293304 -2.12755,-1.372444 z m -4,-3 c -1.24387,-1.586056 -1.2085,-1.621426 0.37755,-0.377556 0.9625,0.754845 1.75,1.542345 1.75,1.75 0,0.823035 -0.82118,0.293304 -2.12755,-1.372444 z m -4,-3 c -1.24387,-1.586056 -1.2085,-1.621426 0.37755,-0.377556 0.9625,0.754845 1.75,1.542345 1.75,1.75 0,0.823035 -0.82118,0.293304 -2.12755,-1.372444 z m -4,-3 c -1.24387,-1.586056 -1.2085,-1.621426 0.37755,-0.377556 0.9625,0.754845 1.75,1.542345 1.75,1.75 0,0.823035 -0.82118,0.293304 -2.12755,-1.372444 z m -4,-3 c -1.24387,-1.586056 -1.2085,-1.621426 0.37755,-0.377556 0.9625,0.754845 1.75,1.542345 1.75,1.75 0,0.823035 -0.82118,0.293304 -2.12755,-1.372444 z m -4,-3 c -1.24387,-1.586056 -1.2085,-1.621426 0.37755,-0.377556 0.9625,0.754845 1.75,1.542345 1.75,1.75 0,0.823035 -0.82118,0.293304 -2.12755,-1.372444 z m -4,-3 c -1.24387,-1.586056 -1.2085,-1.621426 0.37755,-0.377556 1.66575,1.30637 2.19548,2.127556 1.37245,2.127556 -0.20766,0 -0.99516,-0.7875 -1.75,-1.75 z m -4,-3 c -1.24387,-1.586056 -1.2085,-1.621426 0.37755,-0.377556 1.66575,1.30637 2.19548,2.127556 1.37245,2.127556 -0.20766,0 -0.99516,-0.7875 -1.75,-1.75 z m -4,-3 c -1.24387,-1.586056 -1.2085,-1.621426 0.37755,-0.377556 1.66575,1.30637 2.19548,2.127556 1.37245,2.127556 -0.20766,0 -0.99516,-0.7875 -1.75,-1.75 z m -4,-3 c -1.24387,-1.586056 -1.2085,-1.621426 0.37755,-0.377556 1.66575,1.30637 2.19548,2.127556 1.37245,2.127556 -0.20766,0 -0.99516,-0.7875 -1.75,-1.75 z m -4,-3 c -1.24387,-1.586056 -1.2085,-1.621426 0.37755,-0.377556 1.66575,1.30637 2.19548,2.127556 1.37245,2.127556 -0.20766,0 -0.99516,-0.7875 -1.75,-1.75 z m -134.71455,-3.25 c 0,-1.375 0.22697,-1.9375 0.50438,-1.25 0.27742,0.6875 0.27742,1.8125 0,2.5 -0.27741,0.6875 -0.50438,0.125 -0.50438,-1.25 z m 130.71455,0.25 c -1.24387,-1.586056 -1.2085,-1.621426 0.37755,-0.377556 1.66575,1.30637 2.19548,2.127556 1.37245,2.127556 -0.20766,0 -0.99516,-0.7875 -1.75,-1.75 z m -4,-3 c -1.24387,-1.586056 -1.2085,-1.621426 0.37755,-0.377556 1.66575,1.30637 2.19548,2.127556 1.37245,2.127556 -0.20766,0 -0.99516,-0.7875 -1.75,-1.75 z m -4,-3 c -1.24387,-1.586056 -1.2085,-1.621426 0.37755,-0.377556 0.9625,0.754845 1.75,1.542345 1.75,1.75 0,0.823035 -0.82118,0.293304 -2.12755,-1.372444 z m -4,-3 c -1.24387,-1.586056 -1.2085,-1.621426 0.37755,-0.377556 1.66575,1.30637 2.19548,2.127556 1.37245,2.127556 -0.20766,0 -0.99516,-0.7875 -1.75,-1.75 z m -103.91424,-21.5 c 2.45202,-2.6125 4.58952,-4.75 4.75,-4.75 0.75089,0 -0.043,0.897826 -4.45821,5.041792 l -4.75,4.458208 z m 29.79179,-15.412281 c 0.6875,-0.277412 1.8125,-0.277412 2.5,0 0.6875,0.277412 0.125,0.504386 -1.25,0.504386 -1.375,0 -1.9375,-0.226974 -1.25,-0.504386 z m 13,0 c 0.6875,-0.277412 1.8125,-0.277412 2.5,0 0.6875,0.277412 0.125,0.504386 -1.25,0.504386 -1.375,0 -1.9375,-0.226974 -1.25,-0.504386 z"
         id="path7" />
      <path
         style="fill:#0084f5"
         d="m -631.82315,393.61827 c -10.06963,-2.37238 -19.98723,-10.93854 -23.9083,-20.6504 l -2.32617,-5.76155 -0.26846,-128.31002 c -0.2283,-109.11203 -0.0612,-128.18883 1.11692,-127.5 0.76196,0.44551 26.87027,19.93192 58.01846,43.30313 l 56.63308,42.49312 v 98.75688 98.75689 l -42.75,-0.10045 c -23.5125,-0.0553 -44.44449,-0.49967 -46.51553,-0.9876 z"
         id="path6" />
      <path
         style="fill:#fd402f"
         d="m -472.85074,248.48853 -69.70688,-52.273 V 121.07338 45.931225 l 69.99671,52.514531 69.99671,52.514534 69.49984,-52.126985 c 38.22492,-28.669841 69.7264,-52.126983 70.00329,-52.126983 0.2769,0 0.50345,33.638658 0.50345,74.752578 v 74.75257 l -69.08143,51.81006 c -37.99479,28.49553 -69.62669,52.01929 -70.29312,52.27503 -0.66644,0.25573 -32.57979,-23.05788 -70.91857,-51.80803 z"
         id="path5" />
      <path
         style="fill:#316dc6"
         d="m -546.68517,193.95632 c -1.24387,-1.58605 -1.2085,-1.62142 0.37755,-0.37755 0.9625,0.75484 1.75,1.54234 1.75,1.75 0,0.82303 -0.82118,0.2933 -2.12755,-1.37245 z m -4,-3 c -1.24387,-1.58605 -1.2085,-1.62142 0.37755,-0.37755 0.9625,0.75484 1.75,1.54234 1.75,1.75 0,0.82303 -0.82118,0.2933 -2.12755,-1.37245 z m -4,-3 c -1.24387,-1.58605 -1.2085,-1.62142 0.37755,-0.37755 0.9625,0.75484 1.75,1.54234 1.75,1.75 0,0.82303 -0.82118,0.2933 -2.12755,-1.37245 z m -4,-3 c -1.24387,-1.58605 -1.2085,-1.62142 0.37755,-0.37755 0.9625,0.75484 1.75,1.54234 1.75,1.75 0,0.82303 -0.82118,0.2933 -2.12755,-1.37245 z m -4,-3 c -1.24387,-1.58605 -1.2085,-1.62142 0.37755,-0.37755 0.9625,0.75484 1.75,1.54234 1.75,1.75 0,0.82303 -0.82118,0.2933 -2.12755,-1.37245 z m -4,-3 c -1.24387,-1.58605 -1.2085,-1.62142 0.37755,-0.37755 0.9625,0.75484 1.75,1.54234 1.75,1.75 0,0.82303 -0.82118,0.2933 -2.12755,-1.37245 z m -4,-3 c -1.24387,-1.58605 -1.2085,-1.62142 0.37755,-0.37755 0.9625,0.75484 1.75,1.54234 1.75,1.75 0,0.82303 -0.82118,0.2933 -2.12755,-1.37245 z m -4,-3 c -1.24387,-1.58605 -1.2085,-1.62142 0.37755,-0.37755 0.9625,0.75484 1.75,1.54234 1.75,1.75 0,0.82303 -0.82118,0.2933 -2.12755,-1.37245 z m -4,-3 c -1.24387,-1.58605 -1.2085,-1.62142 0.37755,-0.37755 0.9625,0.75484 1.75,1.54234 1.75,1.75 0,0.82303 -0.82118,0.2933 -2.12755,-1.37245 z m -4,-3 c -1.24387,-1.58605 -1.2085,-1.62142 0.37755,-0.37755 0.9625,0.75484 1.75,1.54234 1.75,1.75 0,0.82303 -0.82118,0.2933 -2.12755,-1.37245 z m -4,-3 c -1.24387,-1.58605 -1.2085,-1.62142 0.37755,-0.37755 1.66575,1.30637 2.19548,2.12755 1.37245,2.12755 -0.20766,0 -0.99516,-0.7875 -1.75,-1.75 z m -4,-3 c -1.24387,-1.58605 -1.2085,-1.62142 0.37755,-0.37755 0.9625,0.75484 1.75,1.54234 1.75,1.75 0,0.82303 -0.82118,0.2933 -2.12755,-1.37245 z m -4,-3 c -1.24387,-1.58605 -1.2085,-1.62142 0.37755,-0.37755 0.9625,0.75484 1.75,1.54234 1.75,1.75 0,0.82303 -0.82118,0.2933 -2.12755,-1.37245 z m -4,-3 c -1.24387,-1.58605 -1.2085,-1.62142 0.37755,-0.37755 0.9625,0.75484 1.75,1.54234 1.75,1.75 0,0.82303 -0.82118,0.2933 -2.12755,-1.37245 z m -4,-3 c -1.24387,-1.58605 -1.2085,-1.62142 0.37755,-0.37755 0.9625,0.75484 1.75,1.54234 1.75,1.75 0,0.82303 -0.82118,0.2933 -2.12755,-1.37245 z m -4,-3 c -1.24387,-1.58605 -1.2085,-1.62142 0.37755,-0.37755 0.9625,0.75484 1.75,1.54234 1.75,1.75 0,0.82303 -0.82118,0.2933 -2.12755,-1.37245 z m -4,-3 c -1.24387,-1.58605 -1.2085,-1.62142 0.37755,-0.37755 0.9625,0.75484 1.75,1.54234 1.75,1.75 0,0.82303 -0.82118,0.2933 -2.12755,-1.37245 z m -4,-3 c -1.24387,-1.58605 -1.2085,-1.62142 0.37755,-0.37755 0.9625,0.75484 1.75,1.54234 1.75,1.75 0,0.82303 -0.82118,0.2933 -2.12755,-1.37245 z m -4,-3 c -1.24387,-1.58605 -1.2085,-1.62142 0.37755,-0.37755 0.9625,0.75484 1.75,1.54234 1.75,1.75 0,0.82303 -0.82118,0.2933 -2.12755,-1.37245 z m -4,-3 c -1.24387,-1.58605 -1.2085,-1.62142 0.37755,-0.37755 0.9625,0.75484 1.75,1.54234 1.75,1.75 0,0.82303 -0.82118,0.2933 -2.12755,-1.37245 z m -4,-3 c -1.24387,-1.58605 -1.2085,-1.62142 0.37755,-0.37755 0.9625,0.75484 1.75,1.54234 1.75,1.75 0,0.82303 -0.82118,0.2933 -2.12755,-1.37245 z m -4,-3 c -1.24387,-1.58605 -1.2085,-1.62142 0.37755,-0.37755 0.9625,0.75484 1.75,1.54234 1.75,1.75 0,0.82303 -0.82118,0.2933 -2.12755,-1.37245 z m -4,-3 c -1.24387,-1.58605 -1.2085,-1.62142 0.37755,-0.37755 0.9625,0.75484 1.75,1.54234 1.75,1.75 0,0.82303 -0.82118,0.2933 -2.12755,-1.37245 z m -4,-3 c -1.24387,-1.58605 -1.2085,-1.62142 0.37755,-0.37755 0.9625,0.75484 1.75,1.54234 1.75,1.75 0,0.82303 -0.82118,0.2933 -2.12755,-1.37245 z m -4,-3 c -1.24387,-1.58605 -1.2085,-1.62142 0.37755,-0.37755 0.9625,0.75484 1.75,1.54234 1.75,1.75 0,0.82303 -0.82118,0.2933 -2.12755,-1.37245 z m -4,-3 c -1.24387,-1.58605 -1.2085,-1.62142 0.37755,-0.37755 1.66575,1.30637 2.19548,2.12755 1.37245,2.12755 -0.20766,0 -0.99516,-0.7875 -1.75,-1.75 z m -4,-3 c -1.24387,-1.58605 -1.2085,-1.62142 0.37755,-0.37755 1.66575,1.30637 2.19548,2.12755 1.37245,2.12755 -0.20766,0 -0.99516,-0.7875 -1.75,-1.75 z m -4,-3 c -1.24387,-1.58605 -1.2085,-1.62142 0.37755,-0.37755 0.9625,0.75484 1.75,1.54234 1.75,1.75 0,0.82303 -0.82118,0.2933 -2.12755,-1.37245 z"
         id="path4" />
      <path
         style="fill:#e41b18"
         d="m -601.40891,152.43397 -57.35129,-43.12849 0.45305,-27.549577 c 0.48544,-29.519193 0.93552,-32.552143 6.44519,-43.432369 5.44365,-10.749854 18.09745,-20.966982 30.76282,-24.839007 12.89828,-3.9432288 28.5754,-2.363717 39.54152,3.983913 2.475,1.432629 12.2625,8.427656 21.75,15.544504 l 17.25,12.939723 v 74.876823 c 0,41.18226 -0.3375,74.84446 -0.75,74.8049 -0.4125,-0.0396 -26.55808,-19.47975 -58.10129,-43.20042 z"
         id="path3" />
      <path
         style="fill:#00a849"
         d="m -262.55762,295.76087 v -99.04115 l 58.01832,-43.52714 58.01831,-43.52714 -0.26831,129.27044 -0.26832,129.27044 -2.63516,5.62001 c -3.70574,7.90322 -8.99552,13.3265 -16.69888,17.12031 l -6.61882,3.25968 -44.77357,0.29785 -44.77357,0.29784 z"
         id="path2" />
    </g>
  </g>
</svg>
