<?xml version="1.0" encoding="UTF-8" standalone="no"?>
<!-- Created with Inkscape (http://www.inkscape.org/) -->

<svg
   version="1.1"
   id="svg1"
   width="511.80469"
   height="511.80466"
   viewBox="0 0 511.80469 511.80466"
   sodipodi:docname="linkedin.png"
   xmlns:inkscape="http://www.inkscape.org/namespaces/inkscape"
   xmlns:sodipodi="http://sodipodi.sourceforge.net/DTD/sodipodi-0.dtd"
   xmlns="http://www.w3.org/2000/svg"
   xmlns:svg="http://www.w3.org/2000/svg">
  <defs
     id="defs1" />
  <sodipodi:namedview
     id="namedview1"
     pagecolor="#505050"
     bordercolor="#eeeeee"
     borderopacity="1"
     inkscape:showpageshadow="0"
     inkscape:pageopacity="0"
     inkscape:pagecheckerboard="0"
     inkscape:deskcolor="#505050">
    <inkscape:page
       x="0"
       y="0"
       width="511.80469"
       height="511.80466"
       id="page2"
       margin="0"
       bleed="0" />
  </sodipodi:namedview>
  <g
     inkscape:groupmode="layer"
     inkscape:label="Image"
     id="g1"
     transform="translate(-5.3452864,-2.0808253)">
    <rect
       style="fill:#ffffff;stroke-width:1.00157"
       id="rect16"
       width="414.29492"
       height="359.0979"
       x="52.024784"
       y="74.230484" />
    <g
       id="g9"
       transform="translate(-470.56502,93.319972)">
      <path
         style="fill:#abd2e6"
         d="m 890.10882,203.6394 c 0,-2.475 0.19502,-3.4875 0.43337,-2.25 0.23835,1.2375 0.23835,3.2625 0,4.5 -0.23835,1.2375 -0.43337,0.225 -0.43337,-2.25 z m -142.12253,-75.75 c 0.15667,-9.14922 0.59474,-8.12529 1.07036,2.50183 0.15389,3.4385 -0.0577,6.251 -0.47019,6.25 -0.4125,-0.001 -0.68258,-3.93933 -0.60017,-8.75183 z M 573.12247,48.139404 c 0.008,-2.75 0.20171,-3.756312 0.43157,-2.23625 0.22985,1.520062 0.22371,3.770062 -0.0136,5 -0.23736,1.229938 -0.42543,-0.01375 -0.41792,-2.76375 z m 12.21399,-30.5 c 0.99548,-1.1 2.03497,-2 2.30997,-2 0.275,0 -0.31449,0.9 -1.30997,2 -0.99549,1.1 -2.03498,2 -2.30998,2 -0.275,0 0.31449,-0.9 1.30998,-2 z"
         id="path16" />
      <path
         style="fill:#8ac0dc"
         d="m 650.31689,217.1394 c 5e-5,-53.35 0.12128,-75.02831 0.26939,-48.17403 0.14811,26.85428 0.14807,70.50428 -10e-5,97 -0.14816,26.49572 -0.26934,4.52403 -0.26929,-48.82597 z m 133.33207,-52.18311 c 0.72187,-0.28887 1.58437,-0.25334 1.91666,0.0789 0.33229,0.33229 -0.25833,0.56864 -1.3125,0.52522 -1.16494,-0.048 -1.4019,-0.28494 -0.60416,-0.60417 z m 4,0 c 0.72187,-0.28887 1.58437,-0.25334 1.91666,0.0789 0.33229,0.33229 -0.25833,0.56864 -1.3125,0.52522 -1.16494,-0.048 -1.4019,-0.28494 -0.60416,-0.60417 z m -32.8125,-36.69444 c 0,-0.20766 0.7875,-0.99516 1.75,-1.75 1.58605,-1.24387 1.62142,-1.2085 0.37755,0.37755 -1.30637,1.66575 -2.12755,2.19548 -2.12755,1.37245 z m 52.26903,-21.31544 c 0.97297,-0.25354 2.32297,-0.23687 3,0.0371 0.67703,0.27392 -0.11903,0.48137 -1.76903,0.46099 -1.65,-0.0204 -2.20394,-0.2445 -1.23097,-0.49805 z m 6.48097,0.0307 c 0.6875,-0.27741 1.8125,-0.27741 2.5,0 0.6875,0.27742 0.125,0.50439 -1.25,0.50439 -1.375,0 -1.9375,-0.22697 -1.25,-0.50439 z m -167.75,-26.715271 c 0,-0.207655 0.7875,-0.995155 1.75,-1.75 1.58605,-1.243871 1.62142,-1.2085 0.37755,0.377555 -1.30637,1.665748 -2.12755,2.195479 -2.12755,1.372445 z"
         id="path15" />
      <path
         style="fill:#84bdda"
         d="m 748.30208,262.1394 c 1.6e-4,-29.15 0.12787,-40.93083 0.2838,-26.17964 0.15593,14.7512 0.1558,38.6012 -2.9e-4,53 -0.15609,14.39881 -0.28367,2.32964 -0.28351,-26.82036 z M 605.08646,109.89264 c 6.4625,-0.17419 17.0375,-0.17419 23.5,0 6.4625,0.17418 1.175,0.3167 -11.75,0.3167 -12.925,0 -18.2125,-0.14252 -11.75,-0.3167 z"
         id="path14" />
      <path
         style="fill:#67add2"
         d="m 495.76077,399.8894 -2.42431,-2.75 2.75,2.42432 c 1.5125,1.33337 2.75,2.57087 2.75,2.75 0,0.78427 -0.8098,0.14597 -3.07569,-2.42432 z m 471.07569,0.25 c 1.29174,-1.375 2.57362,-2.5 2.84862,-2.5 0.275,0 -0.55688,1.125 -1.84862,2.5 -1.29175,1.375 -2.57363,2.5 -2.84863,2.5 -0.275,0 0.55688,-1.125 1.84863,-2.5 z m -145.5338,-138 c 1.6e-4,-29.7 0.12762,-41.70573 0.28324,-26.67941 0.15563,15.02631 0.1555,39.32631 -2.8e-4,54 -0.15578,14.67368 -0.28311,2.37941 -0.28296,-27.32059 z m 44.93878,-135.75 -1.90498,-2.25 2.25,1.90499 c 1.2375,1.04775 2.25,2.06025 2.25,2.25 0,0.80026 -0.8048,0.20946 -2.59502,-1.90499 z M 702.08646,109.8922 c 7.0125,-0.1719 18.4875,-0.1719 25.5,0 7.0125,0.1719 1.275,0.31254 -12.75,0.31254 -14.025,0 -19.7625,-0.14064 -12.75,-0.31254 z m -42.018,-61.252796 c 0,-1.925 0.20579,-2.7125 0.45732,-1.75 0.25153,0.9625 0.25153,2.5375 0,3.5 -0.25153,0.9625 -0.45732,0.175 -0.45732,-1.75 z m -164.232,-119.5 c 1.29174,-1.375 2.57362,-2.5 2.84862,-2.5 0.275,0 -0.55688,1.125 -1.84862,2.5 -1.29175,1.375 -2.57363,2.5 -2.84863,2.5 -0.275,0 0.55688,-1.125 1.84863,-2.5 z m 470.92431,-0.25 -2.42431,-2.75 2.75,2.424314 c 1.5125,1.333373 2.75,2.570873 2.75,2.75 0,0.784275 -0.8098,0.145975 -3.07569,-2.424314 z"
         id="path13" />
      <path
         style="fill:#3391c3"
         d="m 615.08646,91.950079 c 0.9625,-0.251528 2.5375,-0.251528 3.5,0 0.9625,0.251527 0.175,0.457323 -1.75,0.457323 -1.925,0 -2.7125,-0.205796 -1.75,-0.457323 z"
         id="path12" />
      <path
         style="fill:#1b85bc"
         d="m 541.64896,419.95629 c 0.72187,-0.28887 1.58437,-0.25334 1.91666,0.0789 0.33229,0.33229 -0.25833,0.56864 -1.3125,0.52522 -1.16494,-0.048 -1.4019,-0.28494 -0.60416,-0.60417 z m 379,0 c 0.72187,-0.28887 1.58437,-0.25334 1.91666,0.0789 0.33229,0.33229 -0.25833,0.56864 -1.3125,0.52522 -1.16494,-0.048 -1.4019,-0.28494 -0.60416,-0.60417 z M 475.9154,354.05607 c 0.048,-1.16494 0.28494,-1.4019 0.60417,-0.60417 0.28887,0.72188 0.25334,1.58438 -0.0789,1.91667 -0.33229,0.33229 -0.56864,-0.25833 -0.52522,-1.3125 z m 511,0 c 0.048,-1.16494 0.28494,-1.4019 0.60417,-0.60417 0.28887,0.72188 0.25334,1.58438 -0.079,1.91667 -0.33229,0.33229 -0.56864,-0.25833 -0.52522,-1.3125 z M 823.7089,321.8894 c -1.24387,-1.58605 -1.2085,-1.62142 0.37756,-0.37755 1.66574,1.30637 2.19548,2.12755 1.37244,2.12755 -0.20765,0 -0.99515,-0.7875 -1.75,-1.75 z m -241.39211,-104.25 c 0,-53.075 0.12125,-74.7875 0.26944,-48.25 0.14819,26.5375 0.14819,69.9625 0,96.5 -0.14819,26.5375 -0.26944,4.825 -0.26944,-48.25 z m 180.01967,-43 c 0.99548,-1.1 2.03497,-2 2.30997,-2 0.275,0 -0.31449,0.9 -1.30997,2 -0.99549,1.1 -2.03498,2 -2.30998,2 -0.275,0 0.31449,-0.9 1.30998,-2 z m 46.37244,-0.75 c -1.24387,-1.58605 -1.2085,-1.62142 0.37756,-0.37755 0.9625,0.75484 1.75,1.54234 1.75,1.75 0,0.82303 -0.82119,0.2933 -2.12756,-1.37245 z m -223.94813,-94.999996 -2.42431,-2.75 2.75,2.424314 c 2.57029,2.265887 3.20858,3.075686 2.42431,3.075686 -0.17913,0 -1.41663,-1.2375 -2.75,-2.75 z M 475.9154,-24.943929 c 0.048,-1.164943 0.28494,-1.401899 0.60417,-0.604167 0.28887,0.721875 0.25334,1.584375 -0.0789,1.916667 -0.33229,0.332292 -0.56864,-0.258333 -0.52522,-1.3125 z m 511,0 c 0.048,-1.164943 0.28494,-1.401899 0.60417,-0.604167 0.28887,0.721875 0.25334,1.584375 -0.079,1.916667 -0.33229,0.332292 -0.56864,-0.258333 -0.52522,-1.3125 z M 541.64896,-91.04371 c 0.72187,-0.28887 1.58437,-0.253344 1.91666,0.07895 0.33229,0.332291 -0.25833,0.56864 -1.3125,0.525219 -1.16494,-0.04798 -1.4019,-0.28494 -0.60416,-0.604167 z m 379,0 c 0.72187,-0.28887 1.58437,-0.253344 1.91666,0.07895 0.33229,0.332291 -0.25833,0.56864 -1.3125,0.525219 -1.16494,-0.04798 -1.4019,-0.28494 -0.60416,-0.604167 z"
         id="path11" />
      <path
         style="fill:#0076b4"
         d="m 537.15455,419.55553 c -25.82399,-3.05273 -49.05067,-21.9736 -57.2517,-46.63824 -1.13787,-3.42216 -2.5385,-10.62216 -3.1125,-16 -0.69922,-6.55092 -0.93502,-72.31799 -0.71449,-199.27789 0.30755,-177.058979 0.44457,-189.926732 2.08707,-195.999996 6.7179,-24.839893 26.4398,-44.382959 51.17353,-50.709498 6.60979,-1.690693 17.89787,-1.790502 202.5,-1.790502 184.47228,0 195.89329,0.100811 202.47236,1.78718 25.18291,6.454962 44.78549,26.057546 51.24046,51.240453 1.68637,6.579072 1.78718,18.000082 1.78718,202.472363 0,184.60213 -0.0998,195.89021 -1.79051,202.5 -6.3265,24.7336 -25.86803,44.4541 -50.70949,51.17392 -6.08577,1.64626 -18.73596,1.76892 -198.5,1.92476 -105.6,0.0915 -195.23186,-0.2156 -199.18191,-0.68255 z m 109.91613,-97.83393 3.26578,-2.9178 0.26422,-100.10435 c 0.29094,-110.22885 0.61379,-104.26185 -5.82122,-107.58952 -2.56427,-1.32603 -7.0362,-1.51834 -29.46201,-1.26693 l -26.43886,0.2964 -2.59086,2.59253 c -1.42497,1.42588 -2.99872,4.35088 -3.49721,6.5 -1.20562,5.1977 -1.1891,191.68316 0.0174,196.90747 0.51059,2.21085 2.09038,5.00641 3.53191,6.25 2.56784,2.21526 3.03169,2.25 30.03657,2.25 h 27.42846 z m 96.82117,1.88816 c 4.90732,-2.62632 4.9434,-3.07477 4.96197,-61.6707 0.014,-44.25406 0.29917,-56.12988 1.48176,-61.71209 3.04531,-14.37489 10.89751,-26.13895 20.96073,-31.40309 4.47324,-2.33998 6.16493,-2.63535 15.04015,-2.62606 8.3988,0.009 10.75326,0.37942 14.70439,2.31471 5.71553,2.79952 12.28068,9.70856 14.94182,15.72452 4.53951,10.26232 4.81806,14.59339 4.83642,75.20201 0.0186,61.29767 0.0369,61.53489 4.96198,64.1707 1.19108,0.63745 12.83404,1.02964 30.56657,1.02964 h 28.64266 l 2.97462,-2.97461 2.97461,-2.97461 -0.35694,-67.77539 c -0.3956,-75.11809 -0.54953,-77.19994 -7.13327,-96.4802 -4.33374,-12.69118 -8.54547,-19.64255 -17.2137,-28.41083 -8.01452,-8.10704 -18.66481,-13.98884 -30.89916,-17.06459 -10.76396,-2.70609 -38.19144,-2.41842 -49,0.51394 -12.95719,3.51527 -19.97037,7.55064 -29.25,16.83039 l -8.25,8.25011 v -8.94133 c 0,-8.46473 -0.15546,-9.1154 -2.91649,-12.2071 l -2.91648,-3.26578 -26.7615,-0.29759 c -18.97141,-0.21097 -27.59457,0.0475 -29.62335,0.88782 -6.14214,2.54416 -5.78218,-4.09886 -5.78218,106.7092 v 101.35442 l 2.92307,2.92308 2.92308,2.92307 h 27.64266 c 17.04667,0 28.38014,-0.39468 29.56658,-1.02964 z M 624.4028,91.546137 c 8.95963,-1.650799 16.20929,-5.538371 23.00251,-12.334912 7.04401,-7.047465 10.84605,-14.273756 12.579,-23.908112 3.37156,-18.744292 -7.10583,-38.539275 -24.84624,-46.942095 -6.43457,-3.0477616 -7.4222,-3.2216137 -18.30161,-3.2216137 -10.86453,0 -11.87347,0.1769063 -18.25853,3.2014511 -9.35313,4.4304906 -16.92119,11.8598796 -21.48232,21.0886896 -3.26228,6.600787 -3.71866,8.469211 -4.04849,16.574638 -0.28647,7.04018 0.071,10.535133 1.55856,15.239399 4.81441,15.224717 17.1545,26.544255 32.59933,29.903312 7.78153,1.692382 9.91102,1.741818 17.19779,0.399243 z"
         id="path10" />
    </g>
  </g>
</svg>
